<svg id="instagram-2016" xmlns="http://www.w3.org/2000/svg" width="25.725" height="25.726" viewBox="0 0 25.725 25.726">
  <path id="Path_140" data-name="Path 140" d="M8.576,12.863a4.288,4.288,0,1,1,4.287,4.288,4.288,4.288,0,0,1-4.287-4.288m-2.318,0a6.605,6.605,0,1,0,6.605-6.605,6.6,6.6,0,0,0-6.605,6.605M18.186,6A1.544,1.544,0,1,0,19.73,4.453h0A1.544,1.544,0,0,0,18.186,6M7.666,23.333a7.109,7.109,0,0,1-2.389-.442,4,4,0,0,1-1.48-.962,3.969,3.969,0,0,1-.962-1.479,7.1,7.1,0,0,1-.442-2.389c-.062-1.356-.075-1.763-.075-5.2s.013-3.841.075-5.2a7.156,7.156,0,0,1,.442-2.389A4,4,0,0,1,3.8,3.8a3.964,3.964,0,0,1,1.48-.962,7.1,7.1,0,0,1,2.389-.442c1.356-.062,1.763-.075,5.2-.075s3.841.013,5.2.075a7.156,7.156,0,0,1,2.389.442,3.985,3.985,0,0,1,1.48.962,3.985,3.985,0,0,1,.962,1.48,7.1,7.1,0,0,1,.442,2.389c.062,1.357.075,1.763.075,5.2s-.012,3.841-.075,5.2a7.136,7.136,0,0,1-.442,2.389,4.259,4.259,0,0,1-2.442,2.441,7.1,7.1,0,0,1-2.389.442c-1.356.062-1.763.075-5.2.075s-3.841-.012-5.2-.075M7.56.078a9.432,9.432,0,0,0-3.122.6A6.309,6.309,0,0,0,2.159,2.159,6.285,6.285,0,0,0,.675,4.438a9.435,9.435,0,0,0-.6,3.122C.015,8.931,0,9.37,0,12.863s.015,3.932.078,5.3a9.434,9.434,0,0,0,.6,3.122,6.288,6.288,0,0,0,1.484,2.279,6.324,6.324,0,0,0,2.279,1.484,9.44,9.44,0,0,0,3.122.6c1.372.062,1.81.078,5.3.078s3.932-.015,5.3-.078a9.434,9.434,0,0,0,3.122-.6,6.577,6.577,0,0,0,3.762-3.762,9.408,9.408,0,0,0,.6-3.122c.062-1.373.077-1.81.077-5.3s-.015-3.932-.077-5.3a9.431,9.431,0,0,0-.6-3.122,6.326,6.326,0,0,0-1.484-2.279A6.294,6.294,0,0,0,21.289.675a9.42,9.42,0,0,0-3.122-.6C16.8.016,16.357,0,12.864,0S8.932.015,7.56.078" fill="#93a5ff"/>
  <path id="Path_141" data-name="Path 141" d="M8.576,12.863a4.288,4.288,0,1,1,4.287,4.288,4.288,4.288,0,0,1-4.287-4.288m-2.318,0a6.605,6.605,0,1,0,6.605-6.605,6.6,6.6,0,0,0-6.605,6.605M18.186,6A1.544,1.544,0,1,0,19.73,4.453h0A1.544,1.544,0,0,0,18.186,6M7.666,23.333a7.109,7.109,0,0,1-2.389-.442,4,4,0,0,1-1.48-.962,3.969,3.969,0,0,1-.962-1.479,7.1,7.1,0,0,1-.442-2.389c-.062-1.356-.075-1.763-.075-5.2s.013-3.841.075-5.2a7.156,7.156,0,0,1,.442-2.389A4,4,0,0,1,3.8,3.8a3.964,3.964,0,0,1,1.48-.962,7.1,7.1,0,0,1,2.389-.442c1.356-.062,1.763-.075,5.2-.075s3.841.013,5.2.075a7.156,7.156,0,0,1,2.389.442,3.985,3.985,0,0,1,1.48.962,3.985,3.985,0,0,1,.962,1.48,7.1,7.1,0,0,1,.442,2.389c.062,1.357.075,1.763.075,5.2s-.012,3.841-.075,5.2a7.136,7.136,0,0,1-.442,2.389,4.259,4.259,0,0,1-2.442,2.441,7.1,7.1,0,0,1-2.389.442c-1.356.062-1.763.075-5.2.075s-3.841-.012-5.2-.075M7.56.078a9.432,9.432,0,0,0-3.122.6A6.309,6.309,0,0,0,2.159,2.159,6.285,6.285,0,0,0,.675,4.438a9.435,9.435,0,0,0-.6,3.122C.015,8.931,0,9.37,0,12.863s.015,3.932.078,5.3a9.434,9.434,0,0,0,.6,3.122,6.288,6.288,0,0,0,1.484,2.279,6.324,6.324,0,0,0,2.279,1.484,9.44,9.44,0,0,0,3.122.6c1.372.062,1.81.078,5.3.078s3.932-.015,5.3-.078a9.434,9.434,0,0,0,3.122-.6,6.577,6.577,0,0,0,3.762-3.762,9.408,9.408,0,0,0,.6-3.122c.062-1.373.077-1.81.077-5.3s-.015-3.932-.077-5.3a9.431,9.431,0,0,0-.6-3.122,6.326,6.326,0,0,0-1.484-2.279A6.294,6.294,0,0,0,21.289.675a9.42,9.42,0,0,0-3.122-.6C16.8.016,16.357,0,12.864,0S8.932.015,7.56.078" fill="rgba(140,58,170,0)"/>
</svg>
