<svg xmlns="http://www.w3.org/2000/svg" width="71.288" height="71.288" viewBox="0 0 71.288 71.288">
  <g id="Group_128" data-name="Group 128" transform="translate(-909 -1154)">
    <g id="_002-globe" data-name="002-globe" transform="translate(939.622 1184.622)">
      <g id="Group_9" data-name="Group 9" transform="translate(0 0)">
        <g id="Group_8" data-name="Group 8">
          <path id="Path_18" data-name="Path 18" d="M421.977,238.934h-2.563a1.281,1.281,0,1,0,0,2.563h2.563a1.281,1.281,0,0,0,0-2.563Z" transform="translate(-391.562 -236.378)" fill="#93a5ff"/>
          <path id="Path_19" data-name="Path 19" d="M370.777,238.934h-2.563a1.281,1.281,0,0,0,0,2.563h2.563a1.281,1.281,0,1,0,0-2.563Z" transform="translate(-346.752 -236.378)" fill="#93a5ff"/>
          <path id="Path_20" data-name="Path 20" d="M225.711,221.867a3.844,3.844,0,1,0,3.844,3.844A3.844,3.844,0,0,0,225.711,221.867Zm0,5.125a1.281,1.281,0,1,1,1.281-1.281A1.281,1.281,0,0,1,225.711,226.992Z" transform="translate(-221.867 -221.867)" fill="#93a5ff"/>
          <path id="Path_21" data-name="Path 21" d="M421.977,341.334h-2.563a1.281,1.281,0,1,0,0,2.563h2.563a1.281,1.281,0,0,0,0-2.563Z" transform="translate(-391.562 -324.559)" fill="#93a5ff"/>
          <path id="Path_22" data-name="Path 22" d="M370.777,341.334h-2.563a1.281,1.281,0,0,0,0,2.563h2.563a1.281,1.281,0,1,0,0-2.563Z" transform="translate(-346.752 -324.559)" fill="#93a5ff"/>
          <path id="Path_23" data-name="Path 23" d="M225.711,324.267a3.844,3.844,0,1,0,3.844,3.844A3.844,3.844,0,0,0,225.711,324.267Zm0,5.125a1.281,1.281,0,1,1,1.281-1.281A1.281,1.281,0,0,1,225.711,329.392Z" transform="translate(-221.867 -310.134)" fill="#93a5ff"/>
          <path id="Path_24" data-name="Path 24" d="M421.977,443.734h-2.563a1.281,1.281,0,1,0,0,2.563h2.563a1.281,1.281,0,0,0,0-2.563Z" transform="translate(-391.562 -413.319)" fill="#93a5ff"/>
          <path id="Path_25" data-name="Path 25" d="M370.777,443.734h-2.563a1.281,1.281,0,0,0,0,2.563h2.563a1.281,1.281,0,1,0,0-2.563Z" transform="translate(-346.752 -413.319)" fill="#93a5ff"/>
          <path id="Path_26" data-name="Path 26" d="M225.711,426.667a3.844,3.844,0,1,0,3.844,3.844A3.844,3.844,0,0,0,225.711,426.667Zm0,5.125a1.281,1.281,0,1,1,1.281-1.281A1.281,1.281,0,0,1,225.711,431.792Z" transform="translate(-221.867 -398.814)" fill="#93a5ff"/>
        </g>
      </g>
    </g>
    <path id="Path_17" data-name="Path 17" d="M71.288,36.832V32.08a5.948,5.948,0,0,0-5.941-5.941H54.624A27.22,27.22,0,0,0,47.355,8.762a1.018,1.018,0,0,0-.09-.126c-.021-.02-.05-.027-.073-.045a27.263,27.263,0,0,0-39.731,0,.685.685,0,0,0-.073.045,1,1,0,0,0-.09.126,27.3,27.3,0,0,0,.031,37.2c.019.019.039.037.058.057A27.141,27.141,0,0,0,24.853,54.5a6.012,6.012,0,0,0,1.322,1.34,5.919,5.919,0,0,0-2.413,4.752v4.752A5.948,5.948,0,0,0,29.7,71.288H65.347a5.948,5.948,0,0,0,5.941-5.941V60.595a5.92,5.92,0,0,0-2.413-4.752,5.919,5.919,0,0,0,2.413-4.752V46.337a5.92,5.92,0,0,0-2.413-4.752A5.92,5.92,0,0,0,71.288,36.832ZM52.217,26.139H42.756A45.624,45.624,0,0,0,41.221,15.2a27.286,27.286,0,0,0,5.171-3.935A24.815,24.815,0,0,1,52.217,26.139ZM44.773,9.522A24.892,24.892,0,0,1,40.5,12.865a24.625,24.625,0,0,0-5.355-9.218A24.968,24.968,0,0,1,44.773,9.522ZM28.515,2.5c4.072.739,7.661,5.228,9.8,11.578a25.025,25.025,0,0,1-9.8,2.529Zm0,16.484A27.394,27.394,0,0,0,39,16.374a42.844,42.844,0,0,1,1.36,9.765H28.515ZM26.139,2.5V16.6a25.027,25.027,0,0,1-9.8-2.529C18.478,7.723,22.067,3.234,26.139,2.5ZM14.289,26.139a42.834,42.834,0,0,1,1.36-9.765,27.4,27.4,0,0,0,10.489,2.606v7.16H14.289Zm10.692,2.376a5.879,5.879,0,0,0-1.219,3.564v3.8a26.735,26.735,0,0,0-8.133,2.4A43.33,43.33,0,0,1,14.3,28.515ZM19.513,3.648a24.626,24.626,0,0,0-5.357,9.218A24.885,24.885,0,0,1,9.878,9.522,24.965,24.965,0,0,1,19.513,3.648ZM8.262,11.265A27.286,27.286,0,0,0,13.433,15.2,45.619,45.619,0,0,0,11.9,26.139H2.437A24.816,24.816,0,0,1,8.262,11.265Zm-5.83,17.25h9.491a45.422,45.422,0,0,0,1.555,10.923,26.867,26.867,0,0,0-5.2,3.965A24.822,24.822,0,0,1,2.432,28.515ZM9.891,45.143a24.553,24.553,0,0,1,4.29-3.362,24.771,24.771,0,0,0,5.429,9.252A24.754,24.754,0,0,1,9.891,45.143Zm13.872,1.194V51.09c0,.075.019.143.021.216-3.052-1.678-5.739-5.481-7.485-10.684a24.369,24.369,0,0,1,7.66-2.347,5.928,5.928,0,0,0,2.18,3.278v.062A5.913,5.913,0,0,0,23.763,46.337ZM68.912,60.595v4.752a3.564,3.564,0,0,1-3.564,3.564H29.7a3.564,3.564,0,0,1-3.564-3.564V60.595A3.564,3.564,0,0,1,29.7,57.03H65.347A3.564,3.564,0,0,1,68.912,60.595Zm0-14.258V51.09a3.564,3.564,0,0,1-3.564,3.564H29.7a3.564,3.564,0,0,1-3.564-3.564V46.337A3.564,3.564,0,0,1,29.7,42.773H65.347A3.564,3.564,0,0,1,68.912,46.337Zm0-9.5A3.564,3.564,0,0,1,65.347,40.4H29.7a3.564,3.564,0,0,1-3.564-3.564V32.08A3.564,3.564,0,0,1,29.7,28.515H65.347a3.564,3.564,0,0,1,3.564,3.564Z" transform="translate(909 1154)" fill="#93a5ff"/>
  </g>
</svg>
