<svg xmlns="http://www.w3.org/2000/svg" width="70.118" height="70.118" viewBox="0 0 70.118 70.118">
  <g id="Group_139" data-name="Group 139" transform="translate(-1482.941 -1261.941)">
    <path id="Path_27" data-name="Path 27" d="M64.275,4.674H63.106V3.124A3.127,3.127,0,0,0,59.982,0h-.764a3.127,3.127,0,0,0-3.124,3.124V4.675H46.745V3.124A3.127,3.127,0,0,0,43.622,0h-.764a3.127,3.127,0,0,0-3.124,3.124V4.675H30.384V3.124A3.127,3.127,0,0,0,27.261,0H26.5a3.127,3.127,0,0,0-3.124,3.124V4.675H14.024V3.124A3.127,3.127,0,0,0,10.9,0h-.764A3.127,3.127,0,0,0,7.012,3.124V4.675H5.843A5.85,5.85,0,0,0,0,10.518V64.275a5.85,5.85,0,0,0,5.843,5.843H64.275a5.85,5.85,0,0,0,5.843-5.843V10.518A5.851,5.851,0,0,0,64.275,4.674ZM58.432,3.124a.788.788,0,0,1,.787-.787h.764a.788.788,0,0,1,.786.787v4.27a.788.788,0,0,1-.786.787h-.764a.788.788,0,0,1-.787-.787Zm-16.361,0a.788.788,0,0,1,.787-.787h.764a.788.788,0,0,1,.786.787v4.27a.788.788,0,0,1-.786.787h-.764a.788.788,0,0,1-.787-.787Zm-16.361,0a.788.788,0,0,1,.786-.787h.764a.788.788,0,0,1,.786.787v4.27a.788.788,0,0,1-.786.787H26.5a.788.788,0,0,1-.786-.787Zm-16.361,0a.788.788,0,0,1,.786-.787H10.9a.788.788,0,0,1,.786.787v4.27a.788.788,0,0,1-.786.787h-.764a.788.788,0,0,1-.786-.787ZM67.781,64.275a3.506,3.506,0,0,1-3.506,3.506H5.843a3.506,3.506,0,0,1-3.506-3.506V15.192H67.781V64.275Zm0-51.42H2.337V10.518A3.506,3.506,0,0,1,5.843,7.012H7.012v.382a3.127,3.127,0,0,0,3.124,3.124H10.9a3.127,3.127,0,0,0,3.124-3.124V7.012h9.349v.382A3.127,3.127,0,0,0,26.5,10.518h.764a3.127,3.127,0,0,0,3.124-3.124V7.012h9.349v.382a3.127,3.127,0,0,0,3.124,3.124h.764a3.127,3.127,0,0,0,3.124-3.124V7.012h9.349v.382a3.127,3.127,0,0,0,3.124,3.124h.764a3.127,3.127,0,0,0,3.124-3.124V7.012h1.169a3.506,3.506,0,0,1,3.506,3.506v2.337Z" transform="translate(1482.941 1261.941)" fill="#93a5ff"/>
    <path id="Path_28" data-name="Path 28" d="M93.082,145.214v1.629A1.153,1.153,0,0,1,91.929,148H90.3a3.435,3.435,0,0,0-2.445,1.013l-9.106,9.106a3.458,3.458,0,0,0,0,4.891l4.89,4.891a3.466,3.466,0,0,0,4.891,0l9.106-9.106a3.432,3.432,0,0,0,1.014-2.446v-1.63a1.153,1.153,0,0,1,1.153-1.153h1.63a3.433,3.433,0,0,0,2.446-1.013l.19-.189,15.1,15.1a4.9,4.9,0,0,0,3.458,1.453,4.5,4.5,0,0,0,3.032-1.153,4.61,4.61,0,0,0,.164-6.685L108.133,143.4l9.663-9.663,5.631-4.027a1.143,1.143,0,0,0,.288-.3l3.262-4.887a1.153,1.153,0,0,0-.144-1.455l-3.262-3.262a1.153,1.153,0,0,0-1.455-.144l-4.887,3.264a1.128,1.128,0,0,0-.3.288l-4.025,5.627-9.664,9.664-4.426-4.423a10.374,10.374,0,0,0-13.878-12.875,1.153,1.153,0,0,0-.367,1.875l4.569,4.581a2.285,2.285,0,0,1,0,3.254,2.353,2.353,0,0,1-3.259,0L81.3,126.352a1.152,1.152,0,0,0-1.875.368A10.384,10.384,0,0,0,92.3,140.6l1.979,1.979-.189.19A3.434,3.434,0,0,0,93.082,145.214Zm31.107,17.5a2.278,2.278,0,0,1,.677,1.679,2.314,2.314,0,0,1-.76,1.663,2.447,2.447,0,0,1-3.313-.224l-15.268-15.268a3.458,3.458,0,0,0-.7-3.859l1.677-1.677Zm-20.133-21.76L114.606,130.4c.023-.024.031-.054.052-.08s.051-.038.07-.066l3.955-5.534,3.926-2.621,1.925,1.925-2.621,3.926-5.533,3.957c-.028.02-.041.05-.067.071s-.054.029-.077.052L103.2,145.074l-1.631-1.631Zm-10.649-2.513a1.153,1.153,0,0,0-1.263-.242,8.085,8.085,0,0,1-11.107-8.856l3.214,3.206a4.611,4.611,0,1,0,6.518-6.516l-3.206-3.215a8.076,8.076,0,0,1,8.854,11.108,1.153,1.153,0,0,0,.248,1.262l4.948,4.948-1.677,1.677a3.557,3.557,0,0,0-3.848-.692Zm1.976,8.4v-1.629a1.153,1.153,0,0,1,.338-.815l.954-.954a1.186,1.186,0,0,1,1.63,0l.807.807,3.262,3.262h.007l.807.807a1.152,1.152,0,0,1,0,1.631l-.954.954a1.143,1.143,0,0,1-.806.352H99.8a3.458,3.458,0,0,0-3.458,3.458v1.63a1.143,1.143,0,0,1-.338.815l-9.106,9.106a1.187,1.187,0,0,1-1.63,0l-4.892-4.892a1.153,1.153,0,0,1,0-1.63l9.106-9.106a1.142,1.142,0,0,1,.815-.338h1.63A3.458,3.458,0,0,0,95.381,146.842Z" transform="translate(1416.667 1159.57)" fill="#93a5ff"/>
  </g>
</svg>
