<svg xmlns="http://www.w3.org/2000/svg" width="72.891" height="71.489" viewBox="0 0 72.891 71.489">
  <g id="_001-cloud" data-name="001-cloud" transform="translate(1.979 11)">
    <g id="Group_7" data-name="Group 7" transform="translate(-1.979)">
      <g id="Group_6" data-name="Group 6">
        <path id="Path_15" data-name="Path 15" d="M58.4,64.335H24.923a5.976,5.976,0,0,0-4.647-4.646v-4.91c10.266-.253,17.872-3.737,17.872-8.315V44.081H63.17A8.336,8.336,0,0,0,64.6,27.533a13.09,13.09,0,0,0-12.153-18,12.958,12.958,0,0,0-10.1,4.789,10.761,10.761,0,0,0-4.2,1.108V8.34c0-4.754-8.2-8.34-19.064-8.34S.021,3.586.021,8.34V46.464c0,4.577,7.606,8.062,17.872,8.315v4.91a5.976,5.976,0,0,0-4.647,4.646H1.213a1.191,1.191,0,1,0,0,2.383H13.247a5.957,5.957,0,0,0,11.676,0H58.4a1.191,1.191,0,1,0,0-2.383ZM42.915,16.68h.012a1.165,1.165,0,0,0,.5-.119,1.235,1.235,0,0,0,.131-.088,1.174,1.174,0,0,0,.261-.218c.018-.022.046-.03.063-.052a10.615,10.615,0,0,1,8.567-4.288A10.723,10.723,0,0,1,61.733,28c-.013.022-.012.046-.023.068a1.091,1.091,0,0,0-.075.223,1.145,1.145,0,0,0-.048.238c0,.024-.014.044-.014.069a1.161,1.161,0,0,0,.029.143,1.188,1.188,0,0,0,.049.238,1.045,1.045,0,0,0,.1.2,1.056,1.056,0,0,0,.119.183,1.149,1.149,0,0,0,.185.164,1.058,1.058,0,0,0,.11.1c.029.017.06.023.088.037s.064.027.1.04a1.205,1.205,0,0,0,.409.082h.411a5.964,5.964,0,0,1,5.957,5.957A5.968,5.968,0,0,1,63.17,41.7h-28.6a5.953,5.953,0,0,1-.409-11.892,1.25,1.25,0,0,0,.173-.048,1.039,1.039,0,0,0,.2-.039c.015,0,.024-.019.039-.025a1.2,1.2,0,0,0,.212-.142.676.676,0,0,0,.29-.315,1.138,1.138,0,0,0,.119-.2,1.238,1.238,0,0,0,.042-.2,1.114,1.114,0,0,0,.033-.259c0-.015.007-.029,0-.045a1.006,1.006,0,0,0-.049-.181,1.119,1.119,0,0,0-.036-.188,8.269,8.269,0,0,1-.612-3.148,8.334,8.334,0,0,1,8.34-8.34Zm-23.83-14.3c9.83,0,16.681,3.139,16.681,5.957S28.915,14.3,19.085,14.3,2.4,11.157,2.4,8.34,9.255,2.383,19.085,2.383ZM2.4,12.492C5.6,15.031,11.723,16.68,19.085,16.68s13.489-1.649,16.681-4.188v4.573A10.585,10.585,0,0,0,33,21c-3.187,1.77-8.339,2.827-13.911,2.827C9.537,23.828,2.4,20.683,2.4,17.871V12.492Zm0,9.531c3.192,2.539,9.319,4.188,16.681,4.188a36.342,36.342,0,0,0,13.161-2.233c-.033.346-.055.692-.055,1.041a10.71,10.71,0,0,0,.341,2.641,8.3,8.3,0,0,0-5.676,4.951,39.67,39.67,0,0,1-7.771.747C9.537,33.359,2.4,30.214,2.4,27.4V22.023Zm0,9.531c3.192,2.539,9.319,4.188,16.681,4.188a43.219,43.219,0,0,0,7.193-.6c-.014.2-.044.394-.044.6a8.294,8.294,0,0,0,2.522,5.966,37.666,37.666,0,0,1-9.671,1.182C9.537,42.89,2.4,39.745,2.4,36.933V31.554Zm0,14.91V41.085c3.192,2.539,9.319,4.188,16.681,4.188A37.5,37.5,0,0,0,31.311,43.4a8.37,8.37,0,0,0,3.264.678h1.191v2.383c0,2.812-7.133,5.957-16.681,5.957S2.4,49.276,2.4,46.464ZM19.085,69.1a3.574,3.574,0,1,1,3.574-3.574A3.574,3.574,0,0,1,19.085,69.1Z" transform="translate(-0.021 -11)" fill="#93a5ff"/>
        <path id="Path_16" data-name="Path 16" d="M452.162,460.8h-7.206a1.2,1.2,0,0,0,0,2.4h7.206a1.2,1.2,0,1,0,0-2.4Z" transform="translate(-380.472 -407.523)" fill="#93a5ff"/>
      </g>
    </g>
  </g>
</svg>
