<svg xmlns="http://www.w3.org/2000/svg" width="35.363" height="57.094" viewBox="0 0 35.363 57.094">
  <g id="launch" transform="translate(-41.29 -1.368)">
    <path id="Path_97" data-name="Path 97" d="M28,39.909a12.989,12.989,0,0,0,3.83,9.247l1.079,1.079,1.079-1.079a12.989,12.989,0,0,0,3.83-9.247,4.909,4.909,0,1,0-9.818,0Zm7.364,0A10.543,10.543,0,0,1,32.909,46.7a10.543,10.543,0,0,1-2.455-6.793,2.455,2.455,0,1,1,4.909,0Z" transform="translate(26.062 7.519)" fill="#fff" stroke="#424d83" stroke-width="1"/>
    <path id="Path_98" data-name="Path 98" d="M35.665,2.119l-.484-.207-.484.207a15.385,15.385,0,0,0-9.334,14.156v4.533A11.977,11.977,0,0,0,18,31.872v3.284h1.227v4.909h7.364V35.156h3.682v4.909h9.818V35.156h3.682v4.909h7.364V35.156h1.227V31.872A11.977,11.977,0,0,0,45,20.809V16.276A15.385,15.385,0,0,0,35.665,2.119ZM20.455,31.872a9.531,9.531,0,0,1,4.909-8.345V32.7H20.455Zm3.682,5.739H21.682V35.156h2.455Zm13.5,0H32.727V35.156h4.909ZM42.545,32.7H27.818V16.276A12.932,12.932,0,0,1,35.182,4.6a12.932,12.932,0,0,1,7.364,11.681Zm6.136,4.909H46.227V35.156h2.455Zm1.227-5.739v.83H45V23.529A9.531,9.531,0,0,1,49.909,31.872Z" transform="translate(23.79 0)" fill="#fff" stroke="#424d83" stroke-width="1"/>
    <path id="Path_99" data-name="Path 99" d="M19,38.682a7.2,7.2,0,0,0,2.095,5.058l1.587,1.587,1.587-1.587a7.2,7.2,0,0,0,2.095-5.058,3.682,3.682,0,1,0-7.364,0Zm4.909,0a4.731,4.731,0,0,1-1.227,3.166,4.731,4.731,0,0,1-1.227-3.166,1.227,1.227,0,1,1,2.455,0Z" transform="translate(24.017 7.519)" fill="#fff" stroke="#424d83" stroke-width="1"/>
    <path id="Path_100" data-name="Path 100" d="M39,38.682a7.2,7.2,0,0,0,2.095,5.058l1.587,1.587,1.587-1.587a7.2,7.2,0,0,0,2.095-5.058,3.682,3.682,0,1,0-7.364,0Zm4.909,0a4.731,4.731,0,0,1-1.227,3.166,4.731,4.731,0,0,1-1.227-3.166,1.227,1.227,0,1,1,2.455,0Z" transform="translate(28.562 7.519)" fill="#fff" stroke="#424d83" stroke-width="1"/>
    <path id="Path_101" data-name="Path 101" d="M32.909,10a4.909,4.909,0,1,0,4.909,4.909A4.909,4.909,0,0,0,32.909,10Zm0,7.364a2.455,2.455,0,1,1,2.455-2.455A2.455,2.455,0,0,1,32.909,17.364Z" transform="translate(26.062 1.838)" fill="#fff" stroke="#424d83" stroke-width="1"/>
  </g>
</svg>
