<svg xmlns="http://www.w3.org/2000/svg" width="50.28" height="50.28" viewBox="0 0 50.28 50.28">
  <g id="layout_1_" data-name="layout (1)" transform="translate(-2 -2)">
    <g id="Path_102" data-name="Path 102" transform="translate(0 0)" fill="#fff" stroke-linecap="square">
      <path d="M 4.513980865478516 52.2296028137207 C 3.155340909957886 52.2296028137207 2.05000114440918 51.12425994873047 2.05000114440918 49.76562118530273 L 2.05000114440918 4.513980865478516 C 2.05000114440918 3.155340909957886 3.155340909957886 2.05000114440918 4.513980865478516 2.05000114440918 L 49.76562118530273 2.05000114440918 C 50.42377090454102 2.05000114440918 51.04253005981445 2.306301116943359 51.50791168212891 2.771681070327759 C 51.97330093383789 3.23707103729248 52.22959136962891 3.855830907821655 52.22959136962891 4.513980865478516 L 52.2296028137207 49.76562118530273 C 52.2296028137207 50.42377090454102 51.97330093383789 51.04253005981445 51.50791931152344 51.50791168212891 C 51.04253005981445 51.97330093383789 50.42377090454102 52.22959136962891 49.76562118530273 52.22959136962891 L 4.513980865478516 52.2296028137207 Z M 3.625991106033325 10.32993125915527 L 3.625991106033325 10.37993144989014 L 3.625991106033325 49.76562118530273 C 3.625991106033325 50.2552604675293 4.024341106414795 50.65361022949219 4.513980865478516 50.65361022949219 L 49.76562118530273 50.65361022949219 C 50.2552604675293 50.65361022949219 50.65361022949219 50.2552604675293 50.65361022949219 49.76562118530273 L 50.65361022949219 10.37993144989014 L 50.65361022949219 10.32993125915527 L 50.60361099243164 10.32993125915527 L 3.675991058349609 10.32993125915527 L 3.625991106033325 10.32993125915527 Z M 4.513980865478516 3.625991106033325 C 4.024341106414795 3.625991106033325 3.625991106033325 4.024341106414795 3.625991106033325 4.513980865478516 L 3.625991106033325 8.703941345214844 L 3.625991106033325 8.753940582275391 L 3.675991058349609 8.753940582275391 L 50.60361099243164 8.753940582275391 L 50.65361022949219 8.753940582275391 L 50.65361022949219 8.703941345214844 L 50.65361022949219 4.513980865478516 C 50.65361022949219 4.024341106414795 50.2552604675293 3.625991106033325 49.76562118530273 3.625991106033325 L 4.513980865478516 3.625991106033325 Z" stroke="none"/>
      <path d="M 4.513980865478516 2.100002288818359 C 3.182910919189453 2.100002288818359 2.100002288818359 3.182910919189453 2.100002288818359 4.513980865478516 L 2.100002288818359 49.76562118530273 C 2.100002288818359 51.0966911315918 3.182910919189453 52.17959976196289 4.513980865478516 52.17959976196289 L 49.76564025878906 52.17959213256836 C 51.09670257568359 52.17959213256836 52.17959976196289 51.0966911315918 52.17959976196289 49.76562118530273 L 52.17959213256836 4.513980865478516 C 52.17959213256836 3.869182586669922 51.92850112915039 3.262981414794922 51.47256088256836 2.807041168212891 C 51.01662063598633 2.351100921630859 50.41041946411133 2.100002288818359 49.76562118530273 2.100002288818359 L 4.513980865478516 2.100002288818359 M 50.7036018371582 8.803939819335938 L 50.60359954833984 8.803939819335938 L 3.675979614257813 8.803939819335938 L 3.575981140136719 8.803939819335938 L 3.575981140136719 8.703941345214844 L 3.575981140136719 4.513980865478516 C 3.575981140136719 3.996772766113281 3.996772766113281 3.575981140136719 4.513980865478516 3.575981140136719 L 49.76562118530273 3.575981140136719 C 50.28282165527344 3.575981140136719 50.7036018371582 3.996772766113281 50.7036018371582 4.513980865478516 L 50.7036018371582 8.703941345214844 L 50.7036018371582 8.803939819335938 M 49.76562118530273 50.7036018371582 L 4.513980865478516 50.7036018371582 C 3.996772766113281 50.7036018371582 3.575981140136719 50.28282165527344 3.575981140136719 49.76562118530273 L 3.575981140136719 10.37993240356445 L 3.575981140136719 10.27993011474609 L 3.675979614257813 10.27993011474609 L 50.60359954833984 10.27993011474609 L 50.7036018371582 10.27993011474609 L 50.7036018371582 10.37993240356445 L 50.7036018371582 49.76562118530273 C 50.7036018371582 50.28282165527344 50.28282165527344 50.7036018371582 49.76562118530273 50.7036018371582 M 4.513980865478516 2 L 49.76562118530273 2 C 51.154052734375 2 52.27960205078125 3.125541687011719 52.27959060668945 4.513980865478516 L 52.27960205078125 49.76562118530273 C 52.27960205078125 51.154052734375 51.154052734375 52.27960205078125 49.76562118530273 52.27959060668945 L 4.513980865478516 52.27960205078125 C 3.125541687011719 52.27960205078125 2 51.154052734375 2 49.76562118530273 L 2 4.513980865478516 C 2 3.12554931640625 3.125541687011719 2 4.513980865478516 2 Z M 50.60359954833984 8.703941345214844 L 50.60359954833984 4.513980865478516 C 50.60359954833984 4.051170349121094 50.22843170166016 3.675979614257813 49.76562118530273 3.675979614257813 L 4.513980865478516 3.675979614257813 C 4.051170349121094 3.675979614257813 3.675979614257813 4.051170349121094 3.675979614257813 4.513980865478516 L 3.675979614257813 8.703941345214844 L 50.60359954833984 8.703941345214844 Z M 49.76562118530273 50.60359954833984 C 50.22843170166016 50.60359954833984 50.60359954833984 50.22843170166016 50.60359954833984 49.76562118530273 L 50.60359954833984 10.37993240356445 L 3.675979614257813 10.37993240356445 L 3.675979614257813 49.76562118530273 C 3.675979614257813 50.22843170166016 4.051170349121094 50.60359954833984 4.513980865478516 50.60359954833984 L 49.76562118530273 50.60359954833984 Z" stroke="none" fill="#93a5ff"/>
    </g>
    <path id="Path_103" data-name="Path 103" d="M6.243,6.245A.866.866,0,0,0,6,6.84a.838.838,0,0,0,.067.318.782.782,0,0,0,.176.277.841.841,0,0,0,1.19-1.19A.877.877,0,0,0,6.243,6.245Z" transform="translate(-0.648 -0.65)" fill="#fff"/>
    <path id="Path_104" data-name="Path 104" d="M10.243,6.242A.882.882,0,0,0,10,6.837,1.136,1.136,0,0,0,10.017,7a.533.533,0,0,0,.05.151.634.634,0,0,0,.075.151,1.321,1.321,0,0,0,.1.126.85.85,0,0,0,1.19,0l.1-.126a.634.634,0,0,0,.075-.151A.533.533,0,0,0,11.659,7a1.136,1.136,0,0,0,.017-.168.838.838,0,0,0-1.433-.595Z" transform="translate(-1.296 -0.647)" fill="#fff"/>
    <path id="Path_105" data-name="Path 105" d="M14.243,6.245a.841.841,0,1,0,1.19,0,.877.877,0,0,0-1.19,0Z" transform="translate(-1.944 -0.65)" fill="#fff"/>
    <path id="Path_106" data-name="Path 106" d="M49.576,14H6V25.732H49.576ZM47.9,24.056H7.676v-8.38H47.9Z" transform="translate(-0.648 -1.944)" fill="#fff"/>
    <path id="Path_107" data-name="Path 107" d="M21.084,30H6V53.464H21.084ZM19.408,51.788H7.676V31.676H19.408Z" transform="translate(-0.648 -4.536)" fill="#fff"/>
    <path id="Path_108" data-name="Path 108" d="M26,40.894H52.816V30H26Zm1.676-9.218H51.14v7.542H27.676Z" transform="translate(-3.888 -4.536)" fill="#fff"/>
    <path id="Path_109" data-name="Path 109" d="M26,55.894H52.816V45H26Zm1.676-9.218H51.14v7.542H27.676Z" transform="translate(-3.888 -6.966)" fill="#fff"/>
  </g>
</svg>
