<svg xmlns="http://www.w3.org/2000/svg" width="29.235" height="24.126" viewBox="0 0 29.235 24.126">
  <g id="twitter" transform="translate(-144.642 156)">
    <path id="Path_145" data-name="Path 145" d="M18.2,0V0h1.277l.467.093a4.991,4.991,0,0,1,.847.238,6.026,6.026,0,0,1,.737.344,7.005,7.005,0,0,1,.646.4,3.975,3.975,0,0,1,.516.427.715.715,0,0,0,.7.118,9.427,9.427,0,0,0,1.031-.307q.553-.2,1.093-.442T26.174.56L26.3.486l0-.007.025-.012.025-.012.025-.012L26.4.43l0-.007.007,0,.007,0,0-.007L26.449.4l.025,0,0,.037-.007.037L26.449.5,26.436.54l-.012.025-.012.025L26.4.626a.853.853,0,0,0-.025.1,4.119,4.119,0,0,1-.233.491,6.142,6.142,0,0,1-.553.872,4.286,4.286,0,0,1-.594.668q-.265.228-.351.319a1.054,1.054,0,0,1-.209.172l-.123.081-.025.012-.025.012,0,.007-.007,0-.007,0,0,.007-.025.012-.025.012,0,.007-.007,0-.007,0,0,.007,0,.007-.007,0-.007,0,0,.007h.123l.688-.147a12.3,12.3,0,0,0,1.314-.356l.663-.221L27,2.7l.037-.012.025-.012.025-.012.025-.012.025-.012.049-.007.049,0v.049l-.012,0-.012.007,0,.007-.007,0-.007,0,0,.007,0,.007-.007,0-.007,0,0,.007,0,.007-.007,0-.012.025-.012.025-.007,0-.312.417a3.452,3.452,0,0,1-.332.417q-.025.007-.069.074a7.039,7.039,0,0,1-.521.548,12.359,12.359,0,0,1-.938.852,1.163,1.163,0,0,0-.467.923q-.007.545-.057,1.233t-.184,1.486a17.714,17.714,0,0,1-.417,1.8,16.411,16.411,0,0,1-.688,1.965,15.307,15.307,0,0,1-.847,1.719q-.442.761-.81,1.289t-.749.995q-.381.467-.963,1.051t-.639.639q-.056.054-.481.4t-.909.7a10.511,10.511,0,0,1-.889.582q-.405.233-.977.533a11.628,11.628,0,0,1-1.233.56q-.663.258-1.4.479a12.785,12.785,0,0,1-1.424.344q-.688.123-1.559.209l-.872.086v.012h-1.6v-.012L7.576,22.1q-.209-.012-.344-.025t-1.019-.135q-.884-.123-1.388-.246t-1.5-.467a14.575,14.575,0,0,1-1.7-.695q-.7-.349-.884-.442t-.4-.226l-.221-.135,0-.007-.007,0-.007,0,0-.007L.074,19.7l-.025-.012,0-.007-.007,0-.007,0,0-.007,0-.007-.007,0H0V19.6l.025,0,.025.007.111.012q.111.012.6.037t1.044,0a10.983,10.983,0,0,0,1.13-.111A12.727,12.727,0,0,0,4.3,19.253a10.071,10.071,0,0,0,1.444-.5q.656-.29.933-.432a9.086,9.086,0,0,0,.84-.521l.565-.381,0-.007.007,0,.007,0,0-.007,0-.007.007,0,.007,0,0-.007.025-.007.025,0,0-.025.007-.025.007,0,0-.007-.2-.012-.381-.025a3.692,3.692,0,0,1-.577-.111,5.539,5.539,0,0,1-.847-.295,6.532,6.532,0,0,1-.884-.467,4.351,4.351,0,0,1-.621-.449q-.189-.177-.491-.5a4.969,4.969,0,0,1-.521-.67,6.024,6.024,0,0,1-.422-.793l-.2-.447-.012-.037-.012-.037-.007-.025,0-.025.037,0,.037.007.27.037a6,6,0,0,0,.847.025,6.56,6.56,0,0,0,.8-.049q.221-.037.27-.049l.049-.012.061-.012.061-.012,0-.007.007,0,.007,0,0-.007-.049-.012L5.378,13.3l-.049-.012-.049-.012-.049-.012q-.049-.012-.172-.049t-.663-.27a5.07,5.07,0,0,1-.86-.454A5.936,5.936,0,0,1,2.927,12a6.95,6.95,0,0,1-.631-.683,4.912,4.912,0,0,1-.614-.97A5.9,5.9,0,0,1,1.277,9.3,5.7,5.7,0,0,1,1.1,8.276L1.056,7.76l.025,0,.025.007.025.012.025.012.025.012.025.012.381.172a4.8,4.8,0,0,0,.945.295q.565.123.675.135l.111.012h.221l0-.007-.007,0-.007,0,0-.007,0-.007L3.5,8.4l-.007,0,0-.007-.025-.012-.025-.012,0-.007-.007,0-.007,0,0-.007-.025-.012-.025-.012,0-.007-.211-.157a3.22,3.22,0,0,1-.422-.4Q2.5,7.5,2.284,7.232a3.982,3.982,0,0,1-.393-.577,7,7,0,0,1-.363-.781,5.544,5.544,0,0,1-.287-.95,5.41,5.41,0,0,1-.111-.945,5.954,5.954,0,0,1,.025-.8A5.216,5.216,0,0,1,1.3,2.431a5.836,5.836,0,0,1,.319-.884l.209-.467.012-.037.012-.037.007,0,0-.007,0-.007.007,0,.007,0,0,.007L1.9,1l.007,0,.007,0,0,.007,0,.007.007,0,.012.025.012.025.007,0,0,.007.332.368q.332.368.786.823a4.618,4.618,0,0,0,.5.472.36.36,0,0,1,.123.113A5.013,5.013,0,0,0,4.2,3.3q.418.344,1.093.8t1.5.9a14.617,14.617,0,0,0,1.768.8q.945.356,1.326.467t1.3.282q.921.172,1.388.221t.639.056l.172,0,0-.037-.007-.037-.049-.307a5.771,5.771,0,0,1-.049-.86,5.636,5.636,0,0,1,.086-1.019,6.037,6.037,0,0,1,.258-.945,5.051,5.051,0,0,1,.336-.769,7.561,7.561,0,0,1,.437-.656,5.3,5.3,0,0,1,.7-.761,5.165,5.165,0,0,1,.982-.7A6.386,6.386,0,0,1,17.092.27a4.749,4.749,0,0,1,.786-.209A2.731,2.731,0,0,0,18.2,0Z" transform="translate(145.642 -155)" fill="none" stroke="#93a5ff" stroke-linejoin="round" stroke-width="2"/>
  </g>
</svg>
